<?xml version="1.0" standalone="no"?>
<!DOCTYPE svg PUBLIC "-//W3C//DTD SVG 20010904//EN"
 "http://www.w3.org/TR/2001/REC-SVG-20010904/DTD/svg10.dtd">
<svg version="1.0" xmlns="http://www.w3.org/2000/svg"
 width="1000.000000pt" height="750.000000pt" viewBox="0 0 1000.000000 750.000000"
 preserveAspectRatio="xMidYMid meet">

<g transform="translate(0.000000,750.000000) scale(0.100000,-0.100000)"
fill="#000000" stroke="none">
<path d="M0 3750 l0 -3750 5000 0 5000 0 0 3750 0 3750 -5000 0 -5000 0 0
-3750z m6894 2560 c67 -26 130 -85 162 -153 l24 -52 0 -418 0 -419 -37 6 c-21
3 -64 8 -95 11 -53 6 -58 9 -58 31 l0 24 -1890 0 -1890 0 0 -465 0 -465 -95 0
-95 0 0 65 0 65 -100 0 -100 0 0 -65 0 -65 -100 0 -100 0 0 93 c0 106 18 148
83 201 38 31 41 31 175 36 l137 5 5 690 5 690 23 42 c31 60 98 120 157 143 49
18 94 19 1892 19 1831 1 1843 1 1897 -19z m-2822 -1199 c24 -22 32 -37 32 -63
0 -43 -26 -86 -61 -99 -16 -6 -152 -9 -349 -7 l-324 3 -27 28 c-41 40 -39 99
5 138 l32 29 330 0 330 0 32 -29z m3058 -55 c341 -79 628 -277 822 -566 l50
-75 -117 -3 c-109 -2 -119 -1 -132 18 -33 47 -117 136 -175 187 -128 111 -285
192 -467 241 -84 22 -117 25 -266 26 -195 1 -267 -11 -430 -75 -136 -53 -269
-141 -380 -252 -51 -51 -100 -105 -111 -120 l-19 -28 -118 3 -117 3 56 84
c104 156 289 327 449 417 142 79 328 142 486 164 113 16 351 4 469 -24z
m-1867 -340 c36 -33 43 -70 23 -113 -31 -66 11 -63 -981 -63 -992 0 -950 -3
-981 63 -20 43 -13 80 23 113 l26 24 932 0 932 0 26 -24z m1657 -526 c32 0 80
-48 80 -80 0 -65 -120 -99 -156 -45 -32 49 1 147 44 130 8 -3 22 -5 32 -5z
m-4780 -26 c85 -27 160 -97 160 -149 0 -21 -33 -54 -62 -61 -23 -5 -34 1 -69
35 -47 46 -89 61 -167 61 -64 0 -112 -19 -140 -55 -52 -66 -13 -107 150 -160
251 -82 335 -165 314 -309 -9 -57 -36 -99 -93 -140 -70 -51 -141 -71 -248 -71
-77 0 -98 4 -147 27 -79 37 -126 74 -149 119 -25 49 -24 94 1 119 41 41 83 22
133 -60 13 -20 42 -45 67 -58 38 -20 57 -23 120 -20 93 5 146 28 168 75 15 31
15 36 -1 66 -23 42 -83 78 -187 112 -116 38 -179 67 -218 100 -129 109 -76
311 94 361 116 34 187 36 274 8z m864 -277 c22 -22 23 -26 18 -183 -6 -196 -1
-215 84 -331 24 -33 4 -63 -43 -63 -46 0 -95 30 -119 75 -10 19 -21 35 -24 35
-3 0 -26 -20 -50 -45 -49 -50 -88 -65 -171 -65 -72 0 -135 38 -176 107 -27 47
-28 51 -28 203 l0 155 -42 3 c-49 4 -59 21 -38 62 33 64 155 63 194 -1 16 -27
18 -46 14 -157 -8 -190 16 -252 95 -252 50 0 112 44 136 95 12 25 22 88 31
194 7 86 14 157 14 158 1 1 8 9 17 17 22 23 61 20 88 -7z m705 -2 c14 -7 35
-27 45 -43 l20 -30 38 32 c43 37 101 58 162 58 54 0 86 -14 125 -52 59 -60 73
-102 87 -258 13 -149 18 -163 66 -188 61 -32 17 -94 -67 -94 -86 0 -113 53
-125 243 -4 73 -12 143 -18 157 -34 85 -142 84 -189 -3 -14 -25 -19 -66 -23
-202 -3 -93 -9 -176 -13 -182 -12 -19 -77 -16 -99 4 -15 13 -18 32 -18 117 -1
126 -15 237 -35 276 -21 41 -59 55 -107 41 -78 -24 -103 -87 -114 -289 -8
-140 -18 -162 -72 -162 -71 1 -72 3 -65 212 3 101 3 196 -1 211 -10 41 -32 56
-69 50 -24 -3 -39 0 -50 12 -24 24 -21 42 12 76 25 25 37 29 82 29 48 0 55 -3
91 -40 21 -23 38 -47 38 -55 0 -22 8 -19 42 21 67 76 176 102 257 59z m1160 0
c14 -7 35 -27 46 -44 l20 -30 25 24 c63 60 183 84 254 50 37 -18 94 -88 114
-140 6 -16 15 -89 20 -161 5 -73 13 -137 17 -143 3 -7 24 -23 45 -36 30 -19
37 -29 33 -45 -8 -31 -42 -50 -91 -50 -89 0 -120 53 -128 219 -7 135 -20 193
-49 221 -29 27 -83 30 -119 7 -51 -34 -60 -67 -66 -252 -3 -93 -9 -176 -13
-182 -5 -7 -26 -13 -47 -13 -60 0 -67 18 -73 197 -4 122 -9 160 -26 197 -25
59 -59 74 -116 55 -74 -26 -100 -93 -111 -291 -7 -133 -18 -158 -69 -158 -20
0 -44 5 -55 12 -18 11 -19 22 -13 198 3 103 3 198 -1 213 -10 40 -32 57 -67
50 -21 -4 -35 0 -49 12 -27 25 -25 41 9 76 25 25 37 29 82 29 48 0 55 -3 91
-40 21 -23 38 -47 38 -55 0 -22 8 -19 42 21 67 76 176 102 257 59z m1042 0
c64 -23 105 -59 135 -121 27 -54 27 -58 21 -189 -7 -148 -1 -167 52 -163 35 3
51 -8 51 -36 0 -28 -28 -54 -66 -65 -41 -11 -114 5 -140 30 l-23 21 -43 -20
c-67 -32 -159 -45 -225 -32 -74 16 -129 68 -138 134 -14 89 16 141 108 185 80
40 156 48 229 27 73 -21 71 -21 63 17 -16 83 -37 102 -120 113 -33 5 -56 0
-112 -25 -86 -37 -100 -38 -114 -7 -17 38 -3 73 41 102 79 52 184 63 281 29z
m1058 6 c16 -16 19 -42 23 -287 4 -173 2 -273 -4 -281 -15 -19 -82 -16 -108 5
-21 17 -22 27 -30 271 -5 139 -6 259 -3 267 7 19 52 43 81 44 12 0 30 -8 41
-19z m1197 6 c34 -7 74 -21 89 -31 34 -23 75 -109 75 -162 0 -48 -42 -114 -87
-137 -44 -23 -143 -30 -228 -17 -42 6 -79 9 -82 6 -10 -9 32 -80 59 -99 37
-28 121 -33 191 -13 75 22 94 20 113 -9 35 -54 -26 -105 -149 -125 -80 -12
-150 -1 -219 37 -181 99 -174 424 12 518 87 44 135 51 226 32z m-1803 -8 c13
-6 31 -24 41 -40 20 -35 27 -36 52 -8 67 75 208 78 258 7 23 -32 20 -62 -10
-97 -31 -38 -47 -39 -86 -6 -56 47 -104 31 -138 -47 -21 -49 -22 -63 -18 -200
7 -171 1 -188 -61 -188 -75 0 -75 1 -81 247 l-5 218 -40 21 c-49 25 -54 46
-21 79 27 27 69 33 109 14z m1220 2 c58 -10 70 -21 69 -62 -1 -50 -44 -104
-200 -257 l-147 -144 100 6 c55 3 124 9 153 12 103 13 171 -35 146 -104 l-9
-25 -251 -1 c-235 -1 -253 0 -273 18 -56 51 -14 124 175 302 74 69 134 130
134 135 0 5 -65 9 -144 9 -118 0 -147 3 -160 16 -33 32 -11 85 39 97 33 8 316
6 368 -2z m-4863 -1316 l0 -515 2280 0 2280 0 0 108 0 107 83 31 c45 17 90 35
100 39 16 7 17 -4 17 -151 l0 -159 316 -260 c174 -143 327 -273 339 -290 68
-89 46 -217 -48 -282 l-40 -28 -3021 -3 c-2226 -2 -3031 0 -3060 8 -85 25
-138 95 -140 184 -1 94 11 106 367 401 l327 270 0 528 0 527 100 0 100 0 0
-515z m390 134 c0 -242 -4 -387 -10 -400 -29 -53 -121 -61 -160 -12 -19 25
-20 38 -20 409 l0 384 95 0 95 0 0 -381z m1690 345 c0 -26 -8 -43 -29 -65
l-29 -29 -687 0 -686 0 -24 24 c-26 26 -40 67 -31 91 5 13 96 15 746 15 l740
0 0 -36z m1135 -4 c43 -63 188 -196 272 -251 462 -302 1058 -238 1444 154 37
38 78 84 91 103 l23 34 118 0 118 0 -21 -39 c-73 -129 -236 -302 -376 -397
-160 -110 -307 -174 -495 -215 -135 -30 -386 -33 -521 -6 -379 76 -688 292
-903 630 l-17 27 119 0 120 0 28 -40z m-195 -305 c59 -31 69 -107 21 -156
l-29 -29 -1171 0 c-854 0 -1177 3 -1195 11 -33 15 -59 71 -51 108 6 29 37 64
65 74 8 3 536 6 1173 6 1014 1 1162 -1 1187 -14z"/>
<path d="M3148 6101 l-33 -29 -3 -266 -3 -266 1891 0 1891 0 -3 266 -3 266
-33 29 -32 29 -1820 0 -1820 0 -32 -29z m2913 -200 c21 -22 29 -39 29 -66 0
-27 -8 -44 -29 -66 l-29 -29 -140 0 c-137 0 -140 0 -166 26 -20 21 -26 37 -26
69 0 32 6 48 26 69 26 26 29 26 166 26 l140 0 29 -29z m594 5 c32 -32 40 -69
25 -107 -23 -53 -41 -59 -192 -59 -130 0 -138 1 -165 24 -23 20 -28 32 -28 71
0 39 5 51 28 71 27 23 35 24 168 24 135 0 141 -1 164 -24z"/>
<path d="M5727 3556 c-71 -26 -90 -87 -40 -126 24 -19 36 -21 82 -15 139 17
211 95 124 132 -53 22 -121 26 -166 9z"/>
<path d="M8021 3768 c-53 -28 -96 -92 -71 -108 23 -15 176 -12 214 4 57 24 51
78 -14 111 -40 21 -79 19 -129 -7z"/>
<path d="M2323 1617 l-292 -242 1485 -3 c816 -1 2152 -1 2968 0 l1485 3 -292
242 -292 242 -2385 0 -2385 0 -292 -242z"/>
</g>
</svg>
